<?xml version="1.0" encoding="UTF-8" standalone="no"?>
<!-- Generator: Adobe Illustrator 20.1.0, SVG Export Plug-In . SVG Version: 6.00 Build 0)  -->

<svg
   version="1.1"
   id="Phone-14"
   x="0px"
   y="0px"
   viewBox="0 0 28.314 28.323"
   style="enable-background:new 0 0 28.314 28.323;"
   xml:space="preserve"
   sodipodi:docname="phoneicon.svg"
   inkscape:version="1.2.2 (b0a8486, 2022-12-01)"
   xmlns:inkscape="http://www.inkscape.org/namespaces/inkscape"
   xmlns:sodipodi="http://sodipodi.sourceforge.net/DTD/sodipodi-0.dtd"
   xmlns="http://www.w3.org/2000/svg"
   xmlns:svg="http://www.w3.org/2000/svg"><defs
   id="defs1260" /><sodipodi:namedview
   id="namedview1258"
   pagecolor="#ffffff"
   bordercolor="#666666"
   borderopacity="1.0"
   inkscape:showpageshadow="2"
   inkscape:pageopacity="0.0"
   inkscape:pagecheckerboard="0"
   inkscape:deskcolor="#d1d1d1"
   showgrid="false"
   inkscape:zoom="8.3324507"
   inkscape:cx="14.281513"
   inkscape:cy="14.1615"
   inkscape:window-width="1309"
   inkscape:window-height="456"
   inkscape:window-x="286"
   inkscape:window-y="425"
   inkscape:window-maximized="0"
   inkscape:current-layer="Phone-14" />
<path
   d="m 27.728,20.504012 -4.242,-4.242 c -0.377,-0.378 -0.879,-0.586 -1.413,-0.586 0,0 -0.001,0 -0.002,0 -0.534,0 -1.036,0.209 -1.413,0.586 l -2.828,2.828 L 9.3449999,10.605013 12.173,7.7770127 c 0.78,-0.78 0.78,-2.05 -10e-4,-2.83 L 7.9289999,0.70501275 c -0.377,-0.377 -0.879,-0.585 -1.413,-0.585 h -10e-4 c -0.535,0 -1.037,0.209 -1.414,0.587 L 0.85799993,4.9500127 c -0.129,0.128 -1.247,1.338 -0.716,3.997 0.626,3.1289993 3.24599997,7.0189993 7.78699997,11.5599993 6.4990001,6.499 10.5980001,7.937 12.9530001,7.937 1.63,0 2.426,-0.689 2.604,-0.867 l 4.242,-4.242 c 0.378,-0.378 0.587,-0.881 0.586,-1.416 0,-0.534 -0.208,-1.037 -0.586,-1.415 z m -5.656,5.658 c -0.028,0.028 -3.409,2.249 -12.7290001,-7.07 -9.52099997,-9.5199993 -7.067,-12.7289993 -7.071,-12.7279993 l 4.243,-4.244 4.2430001,4.244 -3.5350001,3.535 c -0.391,0.3910003 -0.391,1.0230003 0,1.4140003 L 17.122,21.212012 c 0.391,0.391 1.023,0.391 1.414,0 l 3.535,-3.536 4.243,4.244 z"
   id="path1255"
   style="fill:#ffffff;fill-opacity:1" />
</svg>
